<svg width="142" height="127" viewBox="0 0 142 127" fill="none" xmlns="http://www.w3.org/2000/svg">
<path d="M108.554 16.23V1.89925H141.071V126.732H125.158V16.23H108.554Z" fill="#12B896"/>
<path d="M0.637695 63.0208C0.637695 43.2225 3.86632 27.7982 10.3236 16.748C16.7808 5.58267 28.081 0 44.2241 0C60.252 0 71.4945 5.58267 77.9517 16.748C84.409 27.7982 87.6376 43.2225 87.6376 63.0208C87.6376 83.1645 84.409 98.819 77.9517 109.984C71.4945 121.15 60.252 126.732 44.2241 126.732C28.081 126.732 16.7808 121.15 10.3236 109.984C3.86632 98.819 0.637695 83.1645 0.637695 63.0208ZM72.071 63.0208C72.071 53.0066 71.3792 44.5462 69.9955 37.6398C68.7271 30.6183 66.0174 24.9781 61.8663 20.7192C57.8305 16.4602 51.9498 14.3308 44.2241 14.3308C36.3832 14.3308 30.3872 16.4602 26.2361 20.7192C22.2003 24.9781 19.4906 30.6183 18.1069 37.6398C16.8385 44.5462 16.2043 53.0066 16.2043 63.0208C16.2043 73.3804 16.8385 82.071 18.1069 89.0925C19.4906 96.114 22.2003 101.754 26.2361 106.013C30.3872 110.272 36.3832 112.402 44.2241 112.402C51.9498 112.402 57.8305 110.272 61.8663 106.013C66.0174 101.754 68.7271 96.114 69.9955 89.0925C71.3792 82.071 72.071 73.3804 72.071 63.0208Z" fill="#12B896"/>
<path d="M99.9484 6.37052C105.285 2.12218 111.102 0.562802 117.233 1.38446C122.846 2.13711 128.208 4.82979 133.16 7.79563C136.775 9.9612 137.946 14.6428 135.777 18.2515C133.607 21.8599 128.918 23.0288 125.303 20.8636C120.713 18.1146 117.58 16.8067 115.201 16.4877C113.341 16.2385 111.669 16.5372 109.468 18.2887C106.915 20.3217 103.712 24.308 99.8068 31.7064C95.953 39.0079 91.7017 49.0658 86.7905 62.6422C85.3581 66.6 80.9822 68.6483 77.0171 67.219C73.0533 65.789 71.0014 61.424 72.4324 57.4664C77.445 43.6094 81.9735 32.8044 86.3022 24.6031C90.5798 16.4986 94.9638 10.3387 99.9484 6.37052Z" fill="#12B896"/>
</svg>
